:SAMPLES-PER-SECOND 30
:FULLY-SPECIFIED
:DEGREES
456
root  0.77946 32.4869 2.95989 -14.2932 3.73274 -11.1934
LeftUpLeg  -19.6708 2.02798 3.15792
LeftLeg  30.5507 -2.93852 -1.49159
LeftFoot  9.66604 0.0484494 -0.573012
LeftToes  12.1298 1.85109e-006 5.31342e-008
Spine  2.57868 5.67187 1.28916
Spine1  5.27427 11.3049 2.73222
RightShoulder  0.00726485 3.59897 5.96702
RightArm  -48.7431 -29.8044 58.5694
RightForeArm  22.4029 30.5543 5.9722
RightHand  4.33391 -19.5021 -24.4572
LeftShoulder1  -0.000946316 3.56135 -2.42836
LeftArm  -57.9576 29.0616 -48.8907
LeftForeArm  33.2331 -66.7022 -24.3103
LeftHand  -0.313285 -5.37124 6.30946
HEad  -6.88798 -18.6751 15.9654
RightUpLeg  -13.3314 -11.5644 -24.6144
RightLeg  107.043 -6.51508 26.0883
RightFoot  40.58 -6.95745 19.0518
RightToes  16.0164 0.0182943 0.155114
457
root  0.512651 33.5345 4.62595 -24.2891 14.4901 -22.7226
LeftUpLeg  -9.80138 -8.06652 11.0891
LeftLeg  27.0101 -8.72838 -3.74751
LeftFoot  8.30454 0.100192 -1.38004
LeftToes  13.234 1.85109e-006 5.31342e-008
Spine  4.68999 2.23113 5.07965
Spine1  9.54762 4.00352 10.3999
RightShoulder  -0.000441732 4.43678 8.61817
RightArm  -52.5996 -32.6342 48.4473
RightForeArm  30.1626 22.9506 4.27503
RightHand  3.16601 -16.0711 -21.7735
LeftShoulder1  0.00252408 4.21087 -4.07028
LeftArm  -45.5181 14.2859 -55.6462
LeftForeArm  30.0054 -66.016 -23.4767
LeftHand  -0.140305 -1.35345 11.5252
HEad  -7.52577 -20.5185 17.2041
RightUpLeg  -20.0969 -12.612 -27.0904
RightLeg  109.764 -7.22415 24.0621
RightFoot  41.3715 -6.62358 17.8032
RightToes  -109.349 -0.856268 -0.321701
458
root  0.282732 34.3164 5.88468 -28.8177 20.4314 -27.5937
LeftUpLeg  -7.71697 -10.9981 13.3293
LeftLeg  28.1238 -11.173 -5.03645
LeftFoot  8.36714 0.13345 -1.82427
LeftToes  21.1284 1.85109e-006 5.31342e-008
Spine  5.55049 -0.231068 5.04557
Spine1  10.3625 -1.45101 11.17
RightShoulder  -0.0025584 3.63398 9.39723
RightArm  -49.8606 -36.9706 47.68
RightForeArm  35.2885 22.5511 4.18819
RightHand  3.40027 -19.1342 -19.5988
LeftShoulder1  0.0846974 -2.86736 -3.20595
LeftArm  -40.8105 6.08198 -53.7841
LeftForeArm  25.9189 -62.1964 -19.6209
LeftHand  -0.099662 -1.51674 7.18123
HEad  -6.02577 -20.8853 20.1252
RightUpLeg  -33.3439 -1.63301 -36.8459
RightLeg  109.378 -7.19687 24.529
RightFoot  26.2403 -2.70809 11.9586
RightToes  176.448 -1.07436 0.318464
459
root  -0.345349 35.0023 7.51636 -43.8641 30.2369 -45.2646
LeftUpLeg  -6.29724 -26.5318 21.989
LeftLeg  28.8555 -12.8562 -5.97364
LeftFoot  6.53846 0.10038 -1.7572
LeftToes  20.1846 1.85109e-006 5.31342e-008
Spine  8.39813 -6.05628 7.77549
Spine1  13.3624 -14.453 17.3414
RightShoulder  -0.0075094 3.86973 9.55195
RightArm  -48.7286 -43.0393 47.1624
RightForeArm  43.2081 32.2523 6.37125
RightHand  3.00604 -16.4809 -20.161
LeftShoulder1  0.231793 -5.87314 -3.60487
LeftArm  -29.8897 -14.9447 -49.3843
LeftForeArm  17.6763 -47.3495 -11.049
LeftHand  -0.239283 -1.93344 13.788
HEad  -5.7587 -21.693 23.3544
RightUpLeg  -36.7936 4.05823 -52.7797
RightLeg  92.2586 4.14806 70.7072
RightFoot  15.7966 -7.46419 50.7403
RightToes  -39.3987 -0.213698 -0.311701
460
root  -0.75327 35.1203 8.63022 -47.53 29.7706 -47.5103
LeftUpLeg  -4.88502 -22.9146 23.5279
LeftLeg  31.7936 -9.13989 -4.85429
LeftFoot  3.62911 0.0409542 -1.29268
LeftToes  22.8203 1.85109e-006 5.31342e-008
Spine  11.3776 -8.55487 6.98867
Spine1  15.4144 -22.2808 19.2895
RightShoulder  -0.00570054 3.32533 10.4405
RightArm  -43.8463 -47.2381 44.6538
RightForeArm  49.446 43.4055 9.58728
RightHand  3.31894 -16.4643 -22.2691
LeftShoulder1  0.516621 -10.924 -2.25882
LeftArm  -32.0709 -27.1671 -43.0061
LeftForeArm  18.2149 -37.3826 -7.74121
LeftHand  -0.379868 -3.23276 13.0581
HEad  -2.77229 -23.1435 24.5474
RightUpLeg  -41.9684 11.6159 -67.7932
RightLeg  101.956 44.2306 101.941
RightFoot  -8.5949 5.96421 69.8452
RightToes  -99.0756 -0.768439 -0.370284
461
root  -1.20089 35.6218 9.75873 -48.5225 22.6955 -50.2874
LeftUpLeg  -3.34842 -15.2996 31.8574
LeftLeg  32.5419 -5.71464 -3.14516
LeftFoot  2.0423 0.0254936 -1.43021
LeftToes  22.7277 1.85109e-006 5.31342e-008
Spine  13.2371 -10.0581 8.44506
Spine1  15.35 -27.3173 24.8724
RightShoulder  0.00214844 2.5804 9.96523
RightArm  -35.7643 -47.1187 35.6864
RightForeArm  53.6223 47.8305 11.2137
RightHand  3.70277 -17.6154 -23.1893
LeftShoulder1  0.631584 -11.3516 -0.60917
LeftArm  -38.8834 -35.5236 -42.786
LeftForeArm  23.8103 -34.0447 -6.8384
LeftHand  -0.409024 -4.13268 10.9482
HEad  2.31143 -21.4493 22.3631
RightUpLeg  -48.7819 17.2461 -67.9523
RightLeg  29.6551 10.2079 4.9284
RightFoot  21.4701 -0.845035 4.8325
RightToes  -51.1387 -0.313001 -0.369026
